<?xml version="1.0" encoding="UTF-8"?>
<svg xmlns="http://www.w3.org/2000/svg" xmlns:xlink="http://www.w3.org/1999/xlink" width="854" height="480" viewBox="0 0 854 480">
<defs>
<g>
<g id="glyph-0-0">
<path d="M 3.5625 -0.1875 C 3.5625 0.144531 3.570312 0.472656 3.59375 0.796875 C 3.414062 0.773438 3.238281 0.773438 3.0625 0.796875 C 3.070312 0.472656 3.078125 0.144531 3.078125 -0.1875 L 3.078125 -2.78125 C 2.773438 -2.195312 2.40625 -1.648438 1.96875 -1.140625 C 1.539062 -0.628906 1.039062 -0.191406 0.46875 0.171875 C 0.382812 -0.015625 0.253906 -0.15625 0.078125 -0.25 C 0.722656 -0.632812 1.269531 -1.078125 1.71875 -1.578125 C 1.90625 -1.785156 2.082031 -2.035156 2.25 -2.328125 C 2.425781 -2.617188 2.625 -3.019531 2.84375 -3.53125 L 1.328125 -3.53125 C 1.046875 -3.53125 0.765625 -3.523438 0.484375 -3.515625 C 0.503906 -3.671875 0.503906 -3.820312 0.484375 -3.96875 C 0.765625 -3.957031 1.046875 -3.953125 1.328125 -3.953125 L 3.078125 -3.953125 L 3.078125 -4.5 C 3.078125 -4.820312 3.070312 -5.148438 3.0625 -5.484375 C 3.238281 -5.460938 3.414062 -5.460938 3.59375 -5.484375 C 3.570312 -5.148438 3.5625 -4.820312 3.5625 -4.5 L 3.5625 -3.953125 L 5.296875 -3.953125 C 5.578125 -3.953125 5.859375 -3.957031 6.140625 -3.96875 C 6.117188 -3.820312 6.117188 -3.671875 6.140625 -3.515625 C 5.859375 -3.523438 5.578125 -3.53125 5.296875 -3.53125 L 3.8125 -3.53125 C 4.125 -2.164062 4.988281 -1.160156 6.40625 -0.515625 C 6.238281 -0.429688 6.113281 -0.300781 6.03125 -0.125 C 5.519531 -0.363281 5.035156 -0.722656 4.578125 -1.203125 C 4.128906 -1.679688 3.789062 -2.226562 3.5625 -2.84375 Z "/>
</g>
<g id="glyph-0-1">
<path d="M 3.015625 -2.390625 L 3.015625 -3.9375 C 3.015625 -4.238281 3.003906 -4.546875 2.984375 -4.859375 C 3.160156 -4.847656 3.332031 -4.847656 3.5 -4.859375 C 3.5 -4.816406 3.5 -4.78125 3.5 -4.75 C 3.738281 -4.71875 4.054688 -4.734375 4.453125 -4.796875 C 4.859375 -4.859375 5.125 -4.925781 5.25 -5 C 5.382812 -5.070312 5.476562 -5.160156 5.53125 -5.265625 C 5.625 -5.128906 5.738281 -5.007812 5.875 -4.90625 C 5.789062 -4.800781 5.675781 -4.71875 5.53125 -4.65625 C 5.394531 -4.601562 5.164062 -4.550781 4.84375 -4.5 C 4.5 -4.4375 4.046875 -4.382812 3.484375 -4.34375 L 3.46875 -3.34375 L 5.703125 -3.34375 C 5.671875 -2.40625 5.390625 -1.550781 4.859375 -0.78125 C 5.253906 -0.28125 5.773438 0.078125 6.421875 0.296875 C 6.265625 0.390625 6.160156 0.523438 6.109375 0.703125 C 5.515625 0.484375 5.007812 0.101562 4.59375 -0.4375 C 4.164062 0.0820312 3.65625 0.488281 3.0625 0.78125 C 2.945312 0.65625 2.816406 0.550781 2.671875 0.46875 C 2.640625 0.519531 2.609375 0.566406 2.578125 0.609375 C 2.429688 0.472656 2.265625 0.410156 2.078125 0.421875 C 2.429688 0.0664062 2.675781 -0.332031 2.8125 -0.78125 C 2.945312 -1.226562 3.015625 -1.765625 3.015625 -2.390625 Z M 4.125 -3 C 4.175781 -2.300781 4.332031 -1.703125 4.59375 -1.203125 C 4.945312 -1.753906 5.160156 -2.351562 5.234375 -3 Z M 3.46875 -3 L 3.46875 -2.390625 C 3.488281 -1.234375 3.242188 -0.304688 2.734375 0.390625 C 3.359375 0.109375 3.890625 -0.300781 4.328125 -0.84375 C 3.953125 -1.46875 3.742188 -2.1875 3.703125 -3 Z M 0.40625 -0.28125 C 0.289062 -0.394531 0.144531 -0.460938 -0.03125 -0.484375 C 0.113281 -0.734375 0.28125 -1.035156 0.46875 -1.390625 C 0.65625 -1.742188 0.8125 -2.113281 0.9375 -2.5 C 1.0625 -2.894531 1.171875 -3.285156 1.265625 -3.671875 L 0.828125 -3.671875 C 0.617188 -3.671875 0.40625 -3.664062 0.1875 -3.65625 C 0.195312 -3.789062 0.195312 -3.925781 0.1875 -4.0625 C 0.40625 -4.050781 0.617188 -4.046875 0.828125 -4.046875 L 1.375 -4.046875 L 1.375 -4.4375 C 1.375 -4.757812 1.367188 -5.078125 1.359375 -5.390625 C 1.503906 -5.378906 1.65625 -5.378906 1.8125 -5.390625 C 1.789062 -5.078125 1.78125 -4.757812 1.78125 -4.4375 L 1.78125 -4.046875 L 2.5625 -4.0625 C 2.550781 -3.925781 2.550781 -3.789062 2.5625 -3.65625 L 1.78125 -3.671875 L 1.78125 -2.859375 L 1.96875 -3 C 2.21875 -2.59375 2.445312 -2.164062 2.65625 -1.71875 L 2.265625 -1.46875 C 2.171875 -1.6875 2.066406 -1.898438 1.953125 -2.109375 L 1.78125 -2.390625 L 1.78125 -0.078125 C 1.78125 0.242188 1.789062 0.566406 1.8125 0.890625 C 1.65625 0.867188 1.503906 0.867188 1.359375 0.890625 C 1.367188 0.566406 1.375 0.242188 1.375 -0.078125 L 1.375 -2.546875 C 1.082031 -1.640625 0.757812 -0.882812 0.40625 -0.28125 Z "/>
</g>
</g>
</defs>
<g fill="rgb(0%, 0%, 0%)" fill-opacity="1">
<use xlink:href="#glyph-0-0" x="30" y="26.419922"/>
<use xlink:href="#glyph-0-1" x="37" y="26.419922"/>
</g>
</svg>
