<?xml version="1.0" encoding="UTF-8"?>
<svg xmlns="http://www.w3.org/2000/svg" xmlns:xlink="http://www.w3.org/1999/xlink" width="854" height="480" viewBox="0 0 854 480">
<defs>
<g>
<g id="glyph-0-0">
<path d="M 0.25 0 L 0.25 -0.28125 L 0.34375 -0.28125 C 0.488281 -0.28125 0.613281 -0.304688 0.71875 -0.359375 C 0.832031 -0.410156 0.890625 -0.535156 0.890625 -0.734375 L 0.890625 -4.03125 C 0.890625 -4.226562 0.832031 -4.351562 0.71875 -4.40625 C 0.613281 -4.457031 0.488281 -4.484375 0.34375 -4.484375 L 0.25 -4.484375 L 0.25 -4.765625 L 3.609375 -4.765625 L 3.65625 -3.59375 L 3.296875 -3.59375 L 3.265625 -3.890625 C 3.253906 -4.035156 3.203125 -4.160156 3.109375 -4.265625 C 3.015625 -4.378906 2.863281 -4.4375 2.65625 -4.4375 L 1.5625 -4.4375 L 1.5625 -2.5 L 3.171875 -2.5 L 3.171875 -2.171875 L 1.5625 -2.171875 L 1.5625 -0.765625 C 1.5625 -0.554688 1.613281 -0.421875 1.71875 -0.359375 C 1.820312 -0.304688 1.953125 -0.28125 2.109375 -0.28125 L 2.328125 -0.28125 L 2.328125 0 Z "/>
</g>
<g id="glyph-1-0">
<path d="M 5.28125 -0.671875 C 4.976562 -1.085938 4.644531 -1.476562 4.28125 -1.84375 L 4.65625 -2.203125 C 5.03125 -1.816406 5.378906 -1.40625 5.703125 -0.96875 Z M 6.390625 -0.125 C 6.378906 0.0195312 6.378906 0.160156 6.390625 0.296875 C 6.140625 0.285156 5.890625 0.28125 5.640625 0.28125 L 1.9375 0.28125 C 1.6875 0.28125 1.4375 0.285156 1.1875 0.296875 C 1.195312 0.160156 1.195312 0.0195312 1.1875 -0.125 C 1.4375 -0.101562 1.6875 -0.09375 1.9375 -0.09375 L 3.53125 -0.09375 L 3.53125 -2.5 L 2.75 -2.5 C 2.488281 -2.5 2.234375 -2.488281 1.984375 -2.46875 C 1.992188 -2.613281 1.992188 -2.753906 1.984375 -2.890625 C 2.234375 -2.867188 2.488281 -2.859375 2.75 -2.859375 L 3.53125 -2.859375 L 3.53125 -3.5 C 3.53125 -3.8125 3.519531 -4.128906 3.5 -4.453125 C 3.675781 -4.429688 3.847656 -4.429688 4.015625 -4.453125 C 4.003906 -4.128906 4 -3.8125 4 -3.5 L 4 -2.859375 L 5.046875 -2.859375 C 5.296875 -2.859375 5.550781 -2.867188 5.8125 -2.890625 C 5.789062 -2.753906 5.789062 -2.613281 5.8125 -2.46875 C 5.550781 -2.488281 5.296875 -2.5 5.046875 -2.5 L 4 -2.5 L 4 -0.09375 L 5.640625 -0.09375 C 5.890625 -0.09375 6.140625 -0.101562 6.390625 -0.125 Z M 1.140625 -5.15625 L 5.5625 -5.15625 C 5.8125 -5.15625 6.0625 -5.164062 6.3125 -5.1875 C 6.300781 -5.039062 6.300781 -4.898438 6.3125 -4.765625 C 6.0625 -4.773438 5.8125 -4.78125 5.5625 -4.78125 L 1.625 -4.78125 L 1.625 -3.296875 C 1.632812 -2.578125 1.570312 -1.90625 1.4375 -1.28125 C 1.3125 -0.664062 1.0625 -0.0703125 0.6875 0.5 C 0.53125 0.375 0.351562 0.335938 0.15625 0.390625 C 0.550781 -0.128906 0.816406 -0.679688 0.953125 -1.265625 C 1.097656 -1.859375 1.164062 -2.535156 1.15625 -3.296875 Z "/>
</g>
<g id="glyph-1-1">
<path d="M 2.796875 -3.015625 L 2.796875 -3.5 L 1.515625 -3.5 C 1.203125 -3.5 0.894531 -3.488281 0.59375 -3.46875 C 0.601562 -3.644531 0.601562 -3.8125 0.59375 -3.96875 C 0.894531 -3.957031 1.203125 -3.953125 1.515625 -3.953125 L 2.796875 -3.953125 L 2.796875 -4.46875 C 2.796875 -4.8125 2.785156 -5.148438 2.765625 -5.484375 C 2.953125 -5.460938 3.132812 -5.460938 3.3125 -5.484375 C 3.300781 -5.148438 3.296875 -4.8125 3.296875 -4.46875 L 3.296875 -3.953125 L 5.65625 -3.953125 L 5.65625 -0.203125 C 5.65625 0.00390625 5.585938 0.175781 5.453125 0.3125 C 5.234375 0.5 4.867188 0.578125 4.359375 0.546875 C 4.410156 0.316406 4.359375 0.117188 4.203125 -0.046875 C 4.347656 -0.0351562 4.519531 -0.0234375 4.71875 -0.015625 C 4.925781 -0.015625 5.050781 -0.0351562 5.09375 -0.078125 C 5.132812 -0.128906 5.15625 -0.234375 5.15625 -0.390625 L 5.15625 -3.5 L 3.296875 -3.5 L 3.296875 -3.015625 C 3.296875 -2.160156 3.050781 -1.382812 2.5625 -0.6875 C 2.082031 0.0078125 1.457031 0.515625 0.6875 0.828125 C 0.65625 0.734375 0.59375 0.648438 0.5 0.578125 C 0.414062 0.503906 0.328125 0.453125 0.234375 0.421875 C 0.742188 0.273438 1.191406 0.03125 1.578125 -0.3125 C 1.972656 -0.65625 2.273438 -1.0625 2.484375 -1.53125 C 2.691406 -2 2.796875 -2.492188 2.796875 -3.015625 Z "/>
</g>
</g>
</defs>
<g fill="rgb(16.078431%, 67.058824%, 79.215686%)" fill-opacity="1">
<use xlink:href="#glyph-0-0" x="30" y="27.126953"/>
</g>
<g fill="rgb(16.078431%, 67.058824%, 79.215686%)" fill-opacity="1">
<use xlink:href="#glyph-1-0" x="34" y="27.126953"/>
<use xlink:href="#glyph-1-1" x="41" y="27.126953"/>
</g>
</svg>
